<?xml version="1.0" encoding="UTF-8" standalone="no"?>
<!-- Created with Inkscape (http://www.inkscape.org/) -->

<svg
   width="132mm"
   height="94mm"
   viewBox="0 0 132 94.000006"
   version="1.1"
   id="svg4457"
   inkscape:version="1.1.2 (0a00cf5339, 2022-02-04)"
   sodipodi:docname="logotipo.svg"
   xmlns:inkscape="http://www.inkscape.org/namespaces/inkscape"
   xmlns:sodipodi="http://sodipodi.sourceforge.net/DTD/sodipodi-0.dtd"
   xmlns="http://www.w3.org/2000/svg"
   xmlns:svg="http://www.w3.org/2000/svg">
  <sodipodi:namedview
     id="namedview4459"
     pagecolor="#ffffff"
     bordercolor="#111111"
     borderopacity="1"
     inkscape:pageshadow="0"
     inkscape:pageopacity="0"
     inkscape:pagecheckerboard="1"
     inkscape:document-units="mm"
     showgrid="false"
     inkscape:zoom="0.98520767"
     inkscape:cx="231.9308"
     inkscape:cy="263.39624"
     inkscape:window-width="1850"
     inkscape:window-height="1016"
     inkscape:window-x="0"
     inkscape:window-y="0"
     inkscape:window-maximized="1"
     inkscape:current-layer="layer1"
     units="mm" />
  <defs
     id="defs4454" />
  <g
     inkscape:label="Camada 1"
     inkscape:groupmode="layer"
     id="layer1">
    <g
       stroke-width="2"
       fill="none"
       stroke-linecap="butt"
       id="g2916"
       transform="matrix(0.26458333,0,0,0.26458333,-30.381774,-32.615427)"
       style="fill:#000000">
      <path
         stroke="#50525b"
         vector-effect="non-scaling-stroke"
         d="m 150.52,323.66 q 3.54,0.79 5.17,-0.53"
         id="path2690"
         style="fill:#000000" />
      <path
         stroke="#50525b"
         vector-effect="non-scaling-stroke"
         d="m 162.44,322.65 q 3.68,0.81 6.58,-0.49"
         id="path2692"
         style="fill:#000000" />
      <path
         stroke="#50525b"
         vector-effect="non-scaling-stroke"
         d="m 177.73,321.39 q 1.58,0.71 3.24,-0.11"
         id="path2694"
         style="fill:#000000" />
      <path
         stroke="#50525b"
         vector-effect="non-scaling-stroke"
         d="m 188.74,320.51 q 2.67,0.64 3.85,-0.32"
         id="path2696"
         style="fill:#000000" />
      <path
         stroke="#50525b"
         vector-effect="non-scaling-stroke"
         d="m 257.11,302.93 c 1.23,2.19 7.05,8.39 9.42,3.85 q 0.25,-0.48 0.69,-0.16 1.09,0.8 1.67,2.45"
         id="path2698"
         style="fill:#000000" />
      <path
         stroke="#848893"
         vector-effect="non-scaling-stroke"
         d="m 301.35,231.58 q 0.81,-1.02 1.11,-2.99"
         id="path2700"
         style="fill:#000000" />
      <path
         stroke="#50525b"
         vector-effect="non-scaling-stroke"
         d="m 361.26,167.83 q 3.1,-7.81 2.44,-16.37"
         id="path2702"
         style="fill:#000000" />
      <path
         stroke="#6d6f74"
         vector-effect="non-scaling-stroke"
         d="m 364.03,146.67 q 2.64,-3.01 3.88,-6.76"
         id="path2704"
         style="fill:#000000" />
      <path
         stroke="#50525b"
         vector-effect="non-scaling-stroke"
         d="m 370.56,155.18 0.66,9.38"
         id="path2706"
         style="fill:#000000" />
      <path
         stroke="#6d6f74"
         vector-effect="non-scaling-stroke"
         d="m 371.49,201.49 0.42,19.48"
         id="path2708"
         style="fill:#000000" />
      <path
         stroke="#6d6f74"
         vector-effect="non-scaling-stroke"
         d="m 373.58,267.61 q -0.99,10.97 0.26,21.75"
         id="path2710"
         style="fill:#000000" />
      <path
         stroke="#50525b"
         vector-effect="non-scaling-stroke"
         d="m 374.59,319.43 q -0.97,4.22 0.32,8.42"
         id="path2712"
         style="fill:#000000" />
      <path
         stroke="#363c47"
         vector-effect="non-scaling-stroke"
         d="m 371.93,338.17 q 0.25,-1.03 -0.87,-1.25"
         id="path2714"
         style="fill:#000000" />
      <path
         stroke="#6d6f74"
         vector-effect="non-scaling-stroke"
         d="m 370.51,304.99 q 0.85,-14.66 -0.34,-29.32"
         id="path2716"
         style="fill:#000000" />
      <path
         stroke="#6d6f74"
         vector-effect="non-scaling-stroke"
         d="m 369.64,253.99 -0.47,-6.59"
         id="path2718"
         style="fill:#000000" />
      <path
         stroke="#848893"
         vector-effect="non-scaling-stroke"
         d="m 368.4,243.49 c 0.66,-13.41 -0.36,-22.19 -0.84,-33.49 q -0.06,-1.45 -0.61,-2.73 -0.31,-0.71 -0.31,0.06 l -0.1,32.26"
         id="path2720"
         style="fill:#000000" />
      <path
         stroke="#6d6f74"
         vector-effect="non-scaling-stroke"
         d="m 365.83,248.22 q -0.94,6.72 -0.22,13.5"
         id="path2722"
         style="fill:#000000" />
      <path
         stroke="#6d6f74"
         vector-effect="non-scaling-stroke"
         d="m 365.45,303.04 q -0.72,8.64 0.38,17.01"
         id="path2724"
         style="fill:#000000" />
      <path
         stroke="#50525b"
         vector-effect="non-scaling-stroke"
         d="m 362.48,334.85 q 1.1,-5.79 -0.36,-11.21"
         id="path2726"
         style="fill:#000000" />
      <path
         stroke="#6d6f74"
         vector-effect="non-scaling-stroke"
         d="m 361.47,277.74 -0.08,-13.02"
         id="path2728"
         style="fill:#000000" />
      <path
         stroke="#50525b"
         vector-effect="non-scaling-stroke"
         d="m 362.09,248.89 q 1.12,-5.5 0.43,-10.88"
         id="path2730"
         style="fill:#000000" />
      <path
         stroke="#50525b"
         vector-effect="non-scaling-stroke"
         d="m 363.03,216.83 q 1.39,-3.27 0.54,-6.07"
         id="path2732"
         style="fill:#000000" />
      <path
         stroke="#50525b"
         vector-effect="non-scaling-stroke"
         d="m 335.14,292.58 q -1.24,2.25 -1.19,4.35"
         id="path2734"
         style="fill:#000000" />
      <path
         stroke="#6d6f74"
         vector-effect="non-scaling-stroke"
         d="m 333.95,296.93 q -1.05,1.87 -1.37,4.08"
         id="path2736"
         style="fill:#000000" />
      <path
         stroke="#50525b"
         vector-effect="non-scaling-stroke"
         d="m 330.89,305.4 q -0.87,1.79 -0.52,3.18"
         id="path2738"
         style="fill:#000000" />
      <path
         stroke="#6d6f74"
         vector-effect="non-scaling-stroke"
         d="m 329.95,316.75 -0.97,5.1"
         id="path2740"
         style="fill:#000000" />
      <path
         stroke="#50525b"
         vector-effect="non-scaling-stroke"
         d="m 328.98,321.85 q -1.01,0.49 -1.8,0.11"
         id="path2742"
         style="fill:#000000" />
      <path
         stroke="#848893"
         vector-effect="non-scaling-stroke"
         d="m 327.18,321.96 q -0.4,-0.62 -0.39,-0.96 0.15,-5.37 0.22,-9.66 0.05,-2.67 -0.67,-0.1 -1.45,5.2 -4.81,11.26"
         id="path2744"
         style="fill:#000000" />
      <path
         stroke="#50525b"
         vector-effect="non-scaling-stroke"
         d="m 321.53,322.5 q -0.09,0.42 0.54,1.44"
         id="path2746"
         style="fill:#000000" />
      <path
         stroke="#6d6f74"
         vector-effect="non-scaling-stroke"
         d="m 319.38,325.71 q -0.47,-0.49 -1.47,0.01"
         id="path2748"
         style="fill:#000000" />
      <path
         stroke="#50525b"
         vector-effect="non-scaling-stroke"
         d="m 296.1,325.59 q -3.37,-1.2 -5.82,0.28"
         id="path2750"
         style="fill:#000000" />
      <path
         stroke="#363c47"
         vector-effect="non-scaling-stroke"
         d="m 283.97,326.11 q -0.55,-0.06 -0.91,0.16"
         id="path2752"
         style="fill:#000000" />
      <path
         stroke="#50525b"
         vector-effect="non-scaling-stroke"
         d="m 259.17,331.67 q -0.19,-0.07 -0.37,-0.14"
         id="path2754"
         style="fill:#000000" />
      <path
         stroke="#50525b"
         vector-effect="non-scaling-stroke"
         d="m 237.18,326.25 q -0.21,0.66 -2.2,0.15"
         id="path2756"
         style="fill:#000000" />
      <path
         stroke="#50525b"
         vector-effect="non-scaling-stroke"
         d="m 231.54,326.59 q -5.18,-1.38 -9.29,0.29"
         id="path2758"
         style="fill:#000000" />
      <path
         stroke="#6d6f74"
         vector-effect="non-scaling-stroke"
         d="m 183.26,423.46 q 1.98,0.66 3.33,-0.46"
         id="path2770"
         style="fill:#000000" />
      <path
         stroke="#6d6f74"
         vector-effect="non-scaling-stroke"
         d="m 196.5,422.41 q 2.47,0.63 4.97,-0.38"
         id="path2772"
         style="fill:#000000" />
      <path
         stroke="#6d6f74"
         vector-effect="non-scaling-stroke"
         d="m 210.35,421.43 q 3.95,0.61 7.88,-0.38"
         id="path2774"
         style="fill:#000000" />
      <path
         stroke="#50525b"
         vector-effect="non-scaling-stroke"
         d="m 237.24,420.3 q 2,1.09 3.52,-0.14"
         id="path2776"
         style="fill:#000000" />
      <path
         stroke="#6d6f74"
         vector-effect="non-scaling-stroke"
         d="m 264.48,419.39 q 3.06,0.6 6.3,-0.3"
         id="path2778"
         style="fill:#000000" />
      <path
         stroke="#6d6f74"
         vector-effect="non-scaling-stroke"
         d="m 292.29,418.54 q 4.88,0.82 9.21,-0.53"
         id="path2780"
         style="fill:#000000" />
      <path
         stroke="#6d6f74"
         vector-effect="non-scaling-stroke"
         d="m 332.77,417.54 q 9.87,0.81 19.71,-0.48"
         id="path2782"
         style="fill:#000000" />
      <path
         stroke="#6d6f74"
         vector-effect="non-scaling-stroke"
         d="m 416.23,417.03 q 1.42,1.15 2.6,0.33"
         id="path2784"
         style="fill:#000000" />
      <path
         stroke="#6d6f74"
         vector-effect="non-scaling-stroke"
         d="m 435.78,418.06 q 3.92,1.06 7.95,0.53"
         id="path2786"
         style="fill:#000000" />
      <path
         stroke="#50525b"
         vector-effect="non-scaling-stroke"
         d="m 458.64,419.05 q 5.78,1.19 11.33,0.44"
         id="path2788"
         style="fill:#000000" />
      <path
         stroke="#6d6f74"
         vector-effect="non-scaling-stroke"
         d="m 480.91,420.06 q 2.62,1.1 5.81,0.52"
         id="path2790"
         style="fill:#000000" />
      <path
         stroke="#6d6f74"
         vector-effect="non-scaling-stroke"
         d="m 493.52,421.02 q 2.23,0.93 4.26,0.37"
         id="path2792"
         style="fill:#000000" />
      <path
         stroke="#6d6f74"
         vector-effect="non-scaling-stroke"
         d="m 507.49,422.08 q 3.51,0.96 7.22,0.51"
         id="path2794"
         style="fill:#000000" />
      <path
         stroke="#6d6f74"
         vector-effect="non-scaling-stroke"
         d="m 523.36,423.03 q 1.99,1.07 4.22,0.3"
         id="path2796"
         style="fill:#000000" />
      <path
         stroke="#6d6f74"
         vector-effect="non-scaling-stroke"
         d="m 535.26,424.04 q 2.09,0.94 4.05,0.3"
         id="path2798"
         style="fill:#000000" />
      <path
         stroke="#50525b"
         vector-effect="non-scaling-stroke"
         d="m 546.78,425.02 q 2.01,1.02 3.96,0.5"
         id="path2800"
         style="fill:#000000" />
      <path
         stroke="#50525b"
         vector-effect="non-scaling-stroke"
         d="m 511.75,327.6 q -3.85,-0.79 -7.86,-0.11"
         id="path2806"
         style="fill:#000000" />
      <path
         stroke="#50525b"
         vector-effect="non-scaling-stroke"
         d="m 496.34,327.01 q -2.1,-0.16 -4.1,0.34"
         id="path2808"
         style="fill:#000000" />
      <path
         stroke="#848893"
         vector-effect="non-scaling-stroke"
         d="m 432.54,290.52 -3.86,-15.09 a 0.32,0.32 0 0 0 -0.57,-0.11 l -2.7,3.64"
         id="path2810"
         style="fill:#000000" />
      <path
         stroke="#6d6f74"
         vector-effect="non-scaling-stroke"
         d="m 404.53,307.12 -1.33,-7.21 q -0.02,-0.15 -0.05,0 -0.64,4.16 0.89,7.87"
         id="path2812"
         style="fill:#000000" />
      <path
         stroke="#50525b"
         vector-effect="non-scaling-stroke"
         d="m 400.57,323.92 q 0.92,-10.16 -0.4,-20.01"
         id="path2814"
         style="fill:#000000" />
      <path
         stroke="#50525b"
         vector-effect="non-scaling-stroke"
         d="m 398.56,289.1 q 0.68,-2.96 -0.43,-5.22"
         id="path2816"
         style="fill:#000000" />
      <path
         stroke="#6d6f74"
         vector-effect="non-scaling-stroke"
         d="m 379.62,146.24 q 0.59,-1.34 0.3,-2.5 -0.15,-0.61 -0.64,-0.2 -0.85,0.73 -0.59,2.18"
         id="path2818"
         style="fill:#000000" />
      <path
         stroke="#50525b"
         vector-effect="non-scaling-stroke"
         d="m 372.43,160.66 q -0.74,-1.55 -0.84,-3.96"
         id="path2820"
         style="fill:#000000" />
      <path
         stroke="#6d6f74"
         vector-effect="non-scaling-stroke"
         d="m 395.4,222.53 q -0.63,1.9 0.51,3.94"
         id="path2822"
         style="fill:#000000" />
      <path
         stroke="#50525b"
         vector-effect="non-scaling-stroke"
         d="m 400.45,257.02 q -0.53,1.92 0.51,3.48"
         id="path2824"
         style="fill:#000000" />
      <path
         stroke="#50525b"
         vector-effect="non-scaling-stroke"
         d="m 412.96,277.67 q 3.2,-1.17 3.91,-3.94"
         id="path2826"
         style="fill:#000000" />
      <path
         stroke="#848893"
         vector-effect="non-scaling-stroke"
         d="m 447.38,305.25 q 0.04,1.74 0.84,3.15 0.25,0.45 0.76,0.52 0.87,0.13 1.8,-0.04"
         id="path2828"
         style="fill:#000000" />
      <path
         stroke="#6d6f74"
         vector-effect="non-scaling-stroke"
         d="m 450.78,308.88 1.11,-0.13 q 0.46,-0.05 0.72,-0.44 2.2,-3.25 2.33,-5.93"
         id="path2830"
         style="fill:#000000" />
      <path
         stroke="#50525b"
         vector-effect="non-scaling-stroke"
         d="m 467.21,296.88 8.6,6.55"
         id="path2832"
         style="fill:#000000" />
      <path
         stroke="#cac8c5"
         vector-effect="non-scaling-stroke"
         d="m 450.78,308.88 0.18,-0.61"
         id="path2840"
         style="fill:#000000" />
      <path
         stroke="#939598"
         vector-effect="non-scaling-stroke"
         d="m 301.99,227.26 q -0.49,-0.47 -0.62,0.36 -0.33,2.29 -0.61,3.05"
         id="path2844"
         style="fill:#000000" />
      <path
         stroke="#96928d"
         vector-effect="non-scaling-stroke"
         d="m 329.56,321.87 q -0.18,-0.47 -0.58,-0.02"
         id="path2846"
         style="fill:#000000" />
      <path
         stroke="#96928d"
         vector-effect="non-scaling-stroke"
         d="m 334.15,296.97 q -0.1,-0.02 -0.2,-0.04"
         id="path2848"
         style="fill:#000000" />
      <path
         stroke="#acabac"
         vector-effect="non-scaling-stroke"
         d="m 327.18,321.96 q -3.31,1.92 -5.65,0.54"
         id="path2850"
         style="fill:#000000" />
      <path
         stroke="#6d6f74"
         vector-effect="non-scaling-stroke"
         d="m 364.4881,169.4799 a 4.03,0.49 89.6 0 0 0.4619,-4.0333 4.03,0.49 89.6 0 0 -0.5181,-4.0265 4.03,0.49 89.6 0 0 -0.4619,4.0333 4.03,0.49 89.6 0 0 0.5181,4.0265"
         id="path2858"
         style="fill:#000000" />
      <path
         id="path2862"
         transform="translate(-105.69503,-189.55972)"
         d="m 718.58398,592.96875 c -0.248,0.0779 -0.57537,0.17489 -0.77148,0.23828 l -0.0606,0.0644 c 0.0656,-0.01 0.4532,-0.11648 0.76367,-0.19921 0.0228,-0.0345 0.0456,-0.069 0.0684,-0.10352 z m -31.58984,71.46289 c -0.3399,0.0524 -0.41278,0.0919 -0.38867,0.125 -0.002,0.003 -0.002,0.007 -0.004,0.01 0.0442,0.032 0.1877,0.0569 0.32032,0.0801 0.0973,-0.0421 0.19238,-0.0844 0.2871,-0.125 -0.0716,-0.03 -0.14332,-0.0598 -0.21484,-0.0898 z m -0.3418,0.33203 c -0.0123,10e-4 -0.1606,0.007 -0.17382,0.008 -0.0198,0.033 -0.0388,0.0666 -0.0586,0.0996 0.0717,-0.0315 0.16186,-0.0766 0.23242,-0.10742 z"
         style="fill:#000000" />
      <path
         stroke="#6d6f74"
         vector-effect="non-scaling-stroke"
         d="m 363.3057,187.1162 a 4.9,0.41 98.5 0 0 1.1298,-4.7856 4.9,0.41 98.5 0 0 0.3188,-4.9068 4.9,0.41 98.5 0 0 -1.1298,4.7856 4.9,0.41 98.5 0 0 -0.3188,4.9068"
         id="path2866"
         style="fill:#000000" />
      <path
         stroke="#6d6f74"
         vector-effect="non-scaling-stroke"
         d="m 287.85,317.87 q -1.68,1.97 -2.46,4.39 -0.18,0.56 0.41,0.54 l 4.84,-0.19"
         id="path2872"
         style="fill:#000000" />
      <path
         stroke="#848893"
         vector-effect="non-scaling-stroke"
         d="m 316.31,204.75 -1.09,-9.46 q -0.02,-0.2 -0.22,-0.19 l -0.27,0.02 q -0.24,0.01 -0.26,0.25 l -0.86,10.03"
         id="path2874"
         style="fill:#000000" />
      <path
         stroke="#6d6f74"
         vector-effect="non-scaling-stroke"
         d="m 487.29,320.08 q 2.33,0.77 4.57,0.3"
         id="path2876"
         style="fill:#000000" />
      <path
         stroke="#50525b"
         vector-effect="non-scaling-stroke"
         d="m 506.48,321.01 q 3.18,1.59 6.39,0.39"
         id="path2878"
         style="fill:#000000" />
      <path
         id="path2888"
         transform="translate(-105.69503,-189.55972)"
         d="m 221.39062,670.85156 c 0.047,0.19695 -0.0262,0.0936 0,0 z"
         style="fill:#000000" />
      <path
         stroke="#6d6f74"
         vector-effect="non-scaling-stroke"
         d="m 307.83,425.47 q -4.39,-0.5 -8.68,0.44"
         id="path2890"
         style="fill:#000000" />
      <path
         stroke="#6d6f74"
         vector-effect="non-scaling-stroke"
         d="m 284.27,426.92 q -3.99,-1.2 -9.09,-0.02"
         id="path2892"
         style="fill:#000000" />
      <path
         stroke="#50525b"
         vector-effect="non-scaling-stroke"
         d="m 237.77,428.57 q -2.03,-0.48 -3.53,0.41"
         id="path2894"
         style="fill:#000000" />
      <path
         stroke="#50525b"
         vector-effect="non-scaling-stroke"
         d="m 222.28,429.56 q -3.29,-0.64 -6.3,0.37"
         id="path2896"
         style="fill:#000000" />
      <path
         stroke="#50525b"
         vector-effect="non-scaling-stroke"
         d="m 472.52,428.18 q -2.17,-1.66 -4.85,-0.6"
         id="path2906"
         style="fill:#000000" />
      <path
         id="path2908"
         transform="translate(-105.69503,-189.55972)"
         d="m 221.39062,670.85156 c 0.047,0.19695 -0.0262,0.0936 0,0 z"
         style="fill:#000000" />
    </g>
    <path
       id="path2930"
       style="stroke-width:0.264583"
       d="m 70.095725,1.0600505 v 5.3e-4 c -0.0265,0.0021 -0.05178,0.0053 -0.07648,0.0083 -0.0353,0.0021 -0.05725,0.02 -0.06615,0.05529 l -2.018482,7.720457 c 0.0177,0.42509 0.0917,0.774599 0.22221,1.047998 0.705559,-1.31409 1.257599,-2.63158 1.656228,-3.952729 -0.0459,-0.255762 0.006,-0.448466 0.156065,-0.577226 0.0864,-0.0723 0.143028,-0.05437 0.169497,0.05323 0.0511,0.204621 0.02453,0.425098 -0.07958,0.661458 0.132289,0.902229 0.07381,1.751404 0.296106,2.629813 0.635,2.5135485 0.735729,4.4292065 0.918289,7.4269355 0.0811,1.358202 0.233833,2.807968 0.457853,4.349607 0.367771,2.53206 0.550106,5.061413 1.089856,7.609353 0.213421,1.003652 0.374849,1.901913 0.484209,2.693893 0.542401,3.889379 1.243645,7.807853 1.651061,11.707812 0.195802,0.398639 0.233629,0.858684 0.113689,1.380794 l 0.425815,3.918624 c 0.232828,1.73744 0.268216,3.502142 0.105936,5.294252 0.25576,0.613828 0.48958,1.284822 0.701249,2.013313 1.01953,3.48721 2.015503,6.982584 2.987413,10.485664 0.01061,0.0353 0.03353,0.04781 0.06873,0.03721 0.02119,-0.005 0.04236,-0.01151 0.06356,-0.0186 0.0141,-0.004 0.02119,-0.01355 0.02119,-0.02946 -0.0635,-0.980718 -0.17753,-1.807692 -0.34158,-2.481501 -0.72495,-2.977441 -1.455015,-5.953998 -2.190565,-8.929687 -0.398629,-1.612191 -0.529288,-3.394858 -0.391707,-5.347478 -0.26988,-0.65441 -0.348525,-1.348264 -0.235643,-2.082043 0.005,-0.0265 0.01013,-0.0265 0.01344,0 l 0.351917,1.907376 c 0.859888,2.84163 1.478675,6.040789 2.351794,8.562268 0.899578,2.592912 2.011254,5.348989 3.334163,8.268229 0.118179,0.261051 0.232519,0.455692 0.343649,0.584462 0.0511,0.0582 0.0464,0.111035 -0.0155,0.158647 -0.583848,0.440968 -1.005737,0.997625 -1.265039,1.669664 -0.828148,2.13519 -1.791165,4.227957 -2.648415,6.331397 -0.168141,0.41634 0.122256,0.874212 0.568957,0.897104 l 1.552876,0.07648 c 0.20768,0.0109 0.401236,-0.105164 0.489376,-0.293523 l 0.466122,-1.002522 c 0.032,-0.0689 0.102963,-0.111699 0.179835,-0.108522 l 4.264856,0.161232 c 0.0899,0.004 0.149833,0.04681 0.179832,0.129707 l 0.333314,0.928626 c 0.0917,0.253889 0.325831,0.428697 0.595312,0.444418 0.62706,0.0397 2.447412,0.365205 2.005563,-0.973584 -0.739082,-2.23484 -1.500045,-4.461748 -2.283066,-6.680729 -0.616479,-1.741012 -2.360231,-2.404851 -4.117062,-1.772502 -0.15521,0.0564 -0.172659,0.02815 -0.05271,-0.08475 l 0.08733,-0.08475 c 0.0635,-0.06 0.08179,-0.131558 0.0553,-0.214458 -0.690571,-2.217211 -1.71446,-4.323291 -2.272731,-6.572207 -0.358069,-1.432282 -0.718733,-2.864617 -1.082104,-4.296897 -0.414509,-1.621009 -0.935789,-3.208509 -1.56373,-4.7625 -0.418039,-1.03187 -0.807013,-2.13051 -1.166852,-3.296438 -0.0845,-0.268142 0.14672,-0.529842 0.42323,-0.479042 0.523881,0.0979 0.915557,-0.003 1.230416,-0.473874 1.06009,-1.585738 2.236571,-3.107904 3.529499,-4.566645 l 0.714685,-0.962731 c 0.0421,-0.0585 0.133445,-0.04096 0.150897,0.02894 l 1.021125,3.992522 2.222603,8.540562 c 0.0405,0.154742 -0.0987,0.296815 -0.254249,0.259416 -0.848428,-0.195789 -1.705348,-0.246155 -2.571419,-0.150894 -0.14392,0.0149 -0.241445,0.153588 -0.206706,0.294039 l 0.02946,0.113686 c 0.0447,0.181692 0.206684,0.310087 0.393774,0.312127 l 2.627746,0.02119 c 0.150622,0.0021 0.281054,0.104947 0.317294,0.251148 0.29809,1.225899 0.576011,2.466056 0.83354,3.720187 0.505362,2.452655 1.497214,4.839501 2.042253,7.286892 0.112871,0.50269 0.196151,0.496858 0.249081,-0.01603 0.0105,-0.0935 -0.008,-0.267414 -0.05581,-0.521414 -0.592659,-3.148539 -1.994813,-6.683201 -2.629813,-10.194211 -0.0284,-0.163388 0.0749,-0.320193 0.235128,-0.357084 1.225031,-0.283099 2.831107,-0.204248 4.098459,-0.225309 0.201088,-0.004 0.395433,0.02151 0.582393,0.07441 0.0917,0.0265 0.15326,0.0847 0.185002,0.174668 l 3.302121,9.435081 c 0.004,0.009 0.01,0.01233 0.0186,0.01035 l 0.06615,-0.02119 c 0.0353,-0.0105 0.04937,-0.03421 0.04237,-0.07131 -0.378348,-1.640422 -0.757062,-3.25437 -1.484661,-4.807458 -0.693211,-1.47638 -0.9446,-3.005817 -1.431438,-4.513937 -0.0582,-0.17643 0.006,-0.261647 0.19327,-0.256315 1.2065,0.0318 2.44748,0.03852 3.722769,0.02119 1.129771,-0.0132 2.164191,0.203446 3.267501,0.364834 0.352779,-0.0882 0.714279,-0.118126 1.084689,-0.08992 l 1.99781,0.127124 c 0.70732,-0.119951 1.40037,-0.110371 2.07946,0.02894 4.01109,-0.114671 8.03019,-0.168299 12.05714,-0.161229 1.07422,0.003 2.40772,0.160996 3.62201,0.126605 1.48697,-0.142888 2.96435,-0.136411 4.43177,0.0186 l 5.3268,-0.06408 c 0.0215,-0.197339 0.0428,-0.394774 0.0724,-0.591696 -1.6686,-0.01439 -3.33685,-0.02405 -5.00434,-0.01085 -0.52651,0.005 -1.05039,-0.105778 -1.5875,-0.134877 -0.52739,0.134051 -1.00294,0.0954 -1.42627,-0.116271 l -4.77284,-0.182978 c -0.335,0.144611 -0.70043,0.114684 -1.09554,-0.08992 -1.42612,-0.0132 -3.31542,0.187651 -4.68861,-0.129709 -0.59267,0.0951 -1.1646,0.05281 -1.71669,-0.127124 -1.5928,-0.0265 -3.35004,0.127021 -4.92166,-0.17725 -0.56621,0.211669 -1.12943,0.177625 -1.69034,-0.102836 l -3.868496,-0.166911 c -0.39511,0.0829 -0.798378,0.05683 -1.209228,-0.07906 l -0.386022,-0.03204 c -0.0794,-0.007 -0.133815,-0.0474 -0.163814,-0.121441 -0.495652,-1.211789 -1.105937,-2.362115 -1.830898,-3.450434 -0.0805,-0.119639 -0.05275,-0.281469 0.06305,-0.367419 0.372612,-0.27683 0.79049,-0.556868 1.206642,-0.829407 -0.206766,-0.152811 -0.392826,-0.320181 -0.558104,-0.500227 -0.279455,0.205388 -0.55635,0.423386 -0.825791,0.67541 -0.162269,0.15173 -0.343281,0.224954 -0.542602,0.219625 l -2.275313,-1.733227 c -0.57327,-0.287512 -1.159047,-0.896467 -1.756998,-1.827797 -0.02259,-0.037 -0.07883,-0.027 -0.08733,0.0155 -0.267211,1.14037 -0.647912,2.318158 -1.401983,3.268017 -0.02289,0.472721 -0.228438,0.995627 -0.6165,1.568897 -0.0459,0.0688 -0.109545,0.107471 -0.190685,0.116272 l -0.293521,0.03462 c -0.164052,0.03 -0.323008,0.03261 -0.476459,0.01035 -0.09,-0.01241 -0.156961,-0.0581 -0.20102,-0.137459 -0.141099,-0.248711 -0.215138,-0.526621 -0.22221,-0.833541 -0.214278,-0.64294 -0.471234,-1.288684 -0.606163,-1.955434 -0.61559,-3.023301 -1.373963,-5.855891 -2.275314,-8.498192 -0.27869,-0.820177 -0.678849,-1.739175 -1.200959,-2.756937 -0.0476,-0.0935 -0.115417,-0.110919 -0.203605,-0.05271 -0.140232,0.0979 -0.251383,0.253523 -0.264583,0.438734 -0.11906,1.613959 -1.376302,2.042994 -2.670122,2.540413 -0.148961,0.0579 -0.249566,0.19907 -0.256315,0.359667 -0.02119,0.599731 -0.219602,1.128067 -0.595313,1.584917 -0.12524,0.48859 -0.470112,0.835943 -1.034563,1.042313 -0.266348,0.119952 -0.508069,0.0413 -0.725019,-0.235643 -0.54505,-0.690571 -1.275419,-1.923399 -1.979208,-2.386417 -0.0758,-0.0512 -0.130283,-0.118124 -0.163814,-0.201023 C 75.78642,37.479263 75.684081,36.90599 75.705211,36.308039 75.521773,36.03287 75.476846,35.725834 75.570337,35.387165 L 74.368854,27.304452 C 74.167765,26.944624 74.12286,26.596763 74.23398,26.261624 74.12286,25.827702 73.921896,25.428305 73.876895,24.999686 73.398883,20.438264 72.805206,16.468691 72.096125,13.090851 71.533444,10.41327 71.104986,8.1555915 70.810414,6.3176205 c -0.238119,-1.489609 -0.674642,-3.39227 -0.66404,-5.212601 0,-0.0353 -0.01704,-0.05016 -0.05064,-0.04496 z m -3.134691,3.341915 c -0.218731,0.661451 -0.561152,1.257591 -1.026811,1.78852 l -0.08733,1.267624 c 0.11642,1.50989 -0.0986,2.9534005 -0.64544,4.3310015 -1.210019,4.564941 -2.562887,9.099884 -4.058666,13.604854 -0.09172,0.275169 -0.182375,0.558519 -0.272336,0.849561 -0.03176,0.102291 -0.100869,0.147206 -0.206705,0.134874 -0.07055,-0.009 -0.144593,-0.03418 -0.222208,-0.07648 -0.296931,-0.16297 -0.667517,0.0011 -0.746207,0.330729 -0.460372,1.90676 -1.130544,3.718034 -2.01073,5.434293 -0.0503,0.0953 -0.03445,0.206419 -0.08475,0.306958 -0.01852,0.037 -0.07139,0.037 -0.08992,0 -1.542518,-3.045348 -2.537224,-6.122515 -3.047875,-9.654705 -0.241652,-1.673932 -0.432194,-2.883633 -0.571542,-3.629753 -0.303388,-1.61748 -0.520589,-2.823601 -0.651122,-3.617351 -0.07585,-0.456851 -0.19563,-0.854538 -0.359669,-1.19321 -0.06173,-0.128736 -0.105825,-0.122778 -0.132292,0.01603 -0.314851,1.611169 -0.582115,3.2674 -0.968414,4.81521 -0.724953,2.905129 -1.505566,5.826608 -2.135274,8.755538 -0.05292,0.34748 -0.150646,0.610737 -0.293521,0.790649 -1.148289,2.764898 -1.124228,5.654246 -1.862418,8.506457 -0.774348,2.989799 -1.585227,5.970973 -2.431894,8.943123 -0.52387,1.838859 -2.370558,2.722565 -3.928959,3.571874 -0.135205,0.0716 -0.300091,-0.0118 -0.319876,-0.161747 l -0.04496,-0.357085 c -0.102304,-0.291039 -0.250084,-0.506912 -0.442349,-0.648022 -0.07761,-0.0565 -0.138319,-0.04233 -0.182417,0.04237 -0.627065,1.201211 -2.166919,-0.439102 -2.492356,-1.018542 -0.28928,-0.41451 -0.590883,-0.734071 -0.904854,-0.95808 -0.232833,-0.16582 -0.469929,-0.170413 -0.711584,-0.01603 -0.5715,0.37043 -1.117277,0.741963 -1.637625,1.114144 -0.597958,0.431269 -0.966102,1.015879 -1.439706,1.592668 -0.125492,0.153598 -0.34376,0.194924 -0.518314,0.09818 -0.57944,-0.325469 -1.812314,-0.965764 -2.428793,-0.373102 -0.775231,0.743479 -1.942105,2.100749 -3.040126,2.272728 -2.143125,0.340432 -4.273126,0.619165 -6.38979,0.836126 -0.20814,0.16936 -0.547585,0.198115 -1.018543,0.08526 l -2.056204,0.203604 c -0.292804,0.144632 -0.578099,0.153694 -0.856795,0.02842 l -2.304769,0.203604 c -0.511527,0.229299 -1.09187,0.272577 -1.74098,0.129707 l -1.785937,0.127124 c -0.287515,0.232831 -0.743458,0.279384 -1.3678751,0.140044 l -2.521294,0.0956 c -0.33514,0.148148 -0.712121,0.172535 -1.130162,0.0739 -0.799042,0.237971 -1.431211,0.188013 -2.256711,0.185002 -0.846608,-0.0021 -1.746041,0.211643 -2.68303896,0.237712 -0.0016,0.0667 2.65e-4,0.135205 -0.0026,0.202054 0.03038,0.0944 0.04535,0.15579 0.06976,0.236678 0.55353996,0.003 1.11826896,0.05026 1.62625896,0.02479 1.647473,-0.0794 3.296195,-0.124274 4.945433,-0.134874 4.9036101,-0.0335 9.8079401,-0.04961 14.7133151,-0.04961 1.72861,0 3.154695,0.0433 4.278291,0.129707 0.67469,0.0529 1.264729,-0.11131 1.939417,-0.148312 0.724958,-0.29455 1.544034,-0.319882 2.45773,-0.07648 l 0.91054,-0.05116 c 0.351012,0.09 0.544835,0.07723 0.581877,-0.03927 1.384649,-0.0794 2.825708,-0.104434 4.323249,-0.07441 0.542396,0.0132 1.005232,0.190622 1.529107,0.325562 0.132019,0.034 0.206692,0.173617 0.161747,0.302308 l -0.293523,0.843875 c 0.03176,0.0123 0.06416,0.02429 0.09767,0.03669 0.309562,-0.79375 0.867751,-1.148091 1.37046,-1.640211 0.05821,-0.058 0.128148,-0.08792 0.209288,-0.08992 1.421696,-0.037 2.842347,-0.04353 4.262273,-0.0186 0.202853,0.0021 0.362627,0.108725 0.479041,0.320394 0.0635,-0.0388 0.143796,-0.05297 0.240811,-0.04238 l 1.66915,-0.06356 c 0.432152,-0.26107 0.945523,-0.286094 1.539957,-0.07441 1.828271,-0.27252 3.749305,-0.163882 5.593456,-0.116273 0.20814,0.005 0.267182,0.05561 0.177252,0.150897 0.176353,-0.0884 0.306216,-0.08865 0.389123,-0.0026 0.231066,-0.35455 0.468302,-0.510529 0.711584,-0.468188 -0.110982,-0.179919 -0.159009,-0.306766 -0.143142,-0.380855 0.592666,-1.068911 1.017021,-2.061916 1.272788,-2.979147 0.126979,-0.45335 0.18605,-0.444474 0.17725,0.02635 -0.01233,0.756711 -0.03141,1.608717 -0.05788,2.555918 -0.0019,0.06 0.03228,0.14437 0.102839,0.25373 0.139345,0.067 0.298304,0.05746 0.476456,-0.02894 l 0.256831,-1.349271 0.111104,-2.161625 c -0.06174,-0.245041 -0.01601,-0.526082 0.137459,-0.841812 l 0.447003,-1.161168 c 0.05644,-0.389819 0.177556,-0.749671 0.362767,-1.079522 -0.0088,-0.370419 0.09599,-0.753993 0.314709,-1.150831 0.661461,-3.107841 1.485156,-6.178172 2.471169,-9.210292 0.178154,-0.545049 0.374954,-1.337976 0.590145,-2.378667 0.336018,-1.63512 0.664019,-3.164281 1.172019,-4.833813 1.124471,-3.690929 2.034506,-7.429677 3.092837,-11.149705 0.0847,-0.294572 0.152474,-0.291934 0.203604,0.01035 0.31745,1.88383 0.153898,4.019441 -0.0078,5.91385 0.149939,0.49389 0.102037,1.029454 -0.143142,1.606105 l -0.134877,5.603791 c 0.121711,0.94897 0.08389,1.908238 -0.113689,2.878378 l -0.185002,4.188375 0.02119,3.44475 0.172082,12.144478 c 0.25749,0.95603 0.289094,1.944937 0.09509,2.966228 l 0.981334,0.441833 c 0.425101,0.1905 0.600673,0.0552 0.526584,-0.405143 -0.142869,-0.883711 -0.468267,-1.719583 -0.534334,-2.566252 -0.037,-0.467431 -0.06613,-0.92977 -0.08733,-1.38648 -0.194022,-1.476346 -0.227769,-2.976499 -0.100769,-4.500499 l 0.04237,-10.932665 c -0.127008,-1.195912 -0.107416,-2.386547 0.0584,-3.571875 l 0.187584,-2.283066 0.02687,-8.535394 c 0,-0.13571 0.02705,-0.141671 0.08165,-0.01603 0.097,0.225769 0.151145,0.466667 0.161747,0.722437 0.12695,2.989789 0.396838,5.31237 0.222208,8.86044 l 0.203605,1.034561 0.124539,1.743564 0.140044,5.736601 c 0.209939,2.58586 0.239877,5.171289 0.08992,7.757149 l 0.14573,8.44858 c 0.197588,0.0388 0.27409,0.149039 0.22996,0.330729 0.26987,0.0476 0.405143,0.2556 0.405143,0.62425 0,0.121671 0.02992,0.117615 0.08992,-0.0083 0.0406,-0.0847 0.100465,-0.15162 0.179835,-0.20102 0.0847,-0.0512 0.127124,-0.126013 0.127124,-0.224793 L 68.81306,54.12857 C 68.5855,53.387739 68.557161,52.645168 68.72831,51.900797 l -0.198443,-7.956091 c -0.22049,-1.90147 -0.243379,-3.819697 -0.06873,-5.754687 -0.29373,-2.19605 -0.132371,-4.469146 -0.262001,-6.688998 -0.113829,-1.928809 -0.103166,-3.767504 -0.179832,-5.651332 L 67.9082,20.695481 c 0,-0.762 -0.01871,-1.525804 -0.05581,-2.291334 -0.12438,-2.49501 -0.0868,-4.995206 -0.0155,-7.479647 L 67.662225,8.4429975 Z m -0.920359,5.6916425 c 0.0715,1.38e-4 0.132813,0.476739 0.136943,1.065051 0.004,0.588079 -0.05049,1.065517 -0.121957,1.067118 -0.0717,0.0021 -0.133328,-0.475091 -0.137459,-1.065052 -0.004,-0.58974 0.0508,-1.067868 0.122473,-1.067117 z m 0.08526,4.234366 c 0.0594,0.008 0.02156,0.589653 -0.08423,1.298112 -0.106042,0.70953 -0.240139,1.276932 -0.299207,1.266073 -0.0587,-0.01159 -0.02074,-0.591952 0.08475,-1.298112 0.10569,-0.707141 0.23935,-1.273572 0.298687,-1.266073 z M 52.961888,19.00469 c 0.03547,-0.0021 0.05505,0.01492 0.05839,0.05013 l 0.288356,2.503205 c 0.153453,0.197561 0.20873,0.445008 0.166397,0.743108 -0.01233,0.0882 -5.3e-4,0.173932 0.03462,0.256831 0.107609,0.252241 0.179192,0.510567 0.214458,0.775148 0.07144,0.566208 0.3199,1.050583 0.272336,1.645893 -0.0071,0.0864 0.0055,0.170841 0.03721,0.253733 0.306891,0.75406 0.235376,1.58737 0.357085,2.320271 0.08288,0.497409 0.131077,1.101135 0.145211,1.810224 0.01058,0.66322 0.153887,1.893332 0.428913,3.69073 0.01053,0.0705 0.03588,0.128797 0.07648,0.174668 0.02294,0.0265 0.04669,0.051 0.07131,0.0739 0.04767,0.0441 0.07595,0.0991 0.08475,0.16433 0.252241,1.93498 0.510596,3.868999 0.775145,5.80223 0.280463,2.02406 -0.08436,4.034973 -0.343646,6.037874 -0.322789,2.513539 -1.021644,4.78631 -1.815394,7.14375 -0.07375,0.220411 -0.282231,0.367885 -0.515731,0.364837 l -6.780982,-0.0739 -1.281057,0.05013 c -0.104053,0.004 -0.13974,-0.0438 -0.108006,-0.142627 0.137578,-0.42686 0.354275,-0.814197 0.650608,-1.161687 1.021294,-2.180159 1.762231,-4.474038 2.222603,-6.881749 0.39688,-2.07169 0.727501,-4.111601 1.21698,-6.19652 0.793754,-3.372557 1.468547,-6.768867 2.024172,-10.189048 0.34131,-2.09286 0.968213,-4.305099 1.351854,-6.49056 l 0.227894,-2.654102 c 0.0035,-0.0421 0.02641,-0.06425 0.06873,-0.06615 z M 35.78981,49.34599 c 0.01405,-0.0024 0.02851,-0.0011 0.04237,0.0036 0.02766,0.01 0.04862,0.03258 0.05581,0.06098 l 0.907955,3.343981 c 0.01588,0.056 -0.02652,0.111604 -0.08475,0.111104 l -3.339333,-0.0181 c -0.06748,-7.94e-4 -0.108664,-0.0744 -0.0739,-0.132292 l 1.859833,-2.916103 c 0.0056,-0.009 0.01273,-0.01717 0.02119,-0.02376 l 0.571543,-0.412377 c 0.01161,-0.0089 0.02524,-0.01474 0.03928,-0.01707 z m 56.627032,1.624192 c 0.0365,0.0042 0.07136,0.01908 0.100253,0.04392 0.48948,0.42862 0.626986,1.081794 0.928624,1.558044 0.0596,0.0982 0.204317,0.09259 0.259416,-0.01035 l 0.312127,-0.595312 c 0.032,-0.0619 0.103663,-0.0923 0.172082,-0.0739 0.50623,0.149931 0.841076,0.476559 1.005107,0.97927 0.0335,0.105839 -0.004,0.168185 -0.111104,0.187584 -0.470961,0.0882 -0.924742,0.0346 -1.362191,-0.161229 -0.0811,-0.0373 -0.167685,-0.05523 -0.259416,-0.05323 l -0.791165,0.01085 c -0.0777,0.0021 -0.136753,-0.02978 -0.17725,-0.09509 -0.275172,-0.448019 -0.452371,-0.931449 -0.531751,-1.450038 -0.01249,-0.0774 0.02569,-0.154138 0.09508,-0.190688 l 0.251148,-0.130225 c 0.0344,-0.01749 0.07254,-0.02387 0.109037,-0.01963 z m -49.627461,0.294037 c 0.04064,-0.0019 0.08094,0.0011 0.121441,0.0083 0.48605,0.0873 0.956656,0.795181 1.232482,1.114663 0.149915,0.176358 0.133316,0.323651 -0.05013,0.441833 -0.02606,0.01561 -0.05539,0.02376 -0.08475,0.02376 l -2.939873,-0.02119 c -0.327856,-0.0021 -0.355266,-0.0943 -0.08423,-0.277503 0.560914,-0.381 1.041371,-0.755837 1.441773,-1.124479 0.119063,-0.10964 0.24138,-0.159536 0.363284,-0.165364 z m 48.714855,0.135392 c 0.0241,0.008 0.04329,0.02684 0.05219,0.05064 l 0.476457,1.217496 c 0.0218,0.0538 -0.0159,0.113123 -0.0739,0.116274 l -2.714562,0.17725 c -0.0875,0.006 -0.124814,-0.109204 -0.05064,-0.156065 l 2.238624,-1.39733 c 0.02151,-0.01339 0.04793,-0.01614 0.07183,-0.0078 z M 31.064,51.505548 c 0.05027,0.003 0.09935,0.02262 0.138491,0.05891 l 0.262001,0.243395 c 0.04403,0.0421 0.06887,0.100341 0.06873,0.161232 l 0.0026,0.743622 c 5e-5,0.119751 -0.09478,0.218009 -0.214458,0.222211 l -1.685168,0.06615 c -0.216138,0.006 -0.312521,-0.269078 -0.140042,-0.39946 l 1.423168,-1.053166 c 0.04299,-0.0317 0.09443,-0.04569 0.144695,-0.04289 z m 99.67195,1.88464 c -5.3e-4,0.0365 -0.0106,0.0771 -0.007,0.111623 0.008,0.065 0.15569,0.197852 0.14469,0.133323 -0.0142,-0.0829 -0.0415,-0.163018 -0.0631,-0.24443 -0.025,-2.38e-4 -0.0499,1.54e-4 -0.0749,-5.29e-4 z M 84.534637,68.135026 c 0.0406,-0.01029 0.08228,0.01281 0.09508,0.05271 l 1.137914,3.596164 c 0.0163,0.0526 -0.02458,0.105465 -0.07958,0.102835 l -2.894393,-0.111106 c -0.0534,-0.0021 -0.08922,-0.0556 -0.07131,-0.105937 l 1.174604,-3.338814 c 0.009,-0.025 0.03001,-0.04383 0.05581,-0.05013 z m 47.009013,6.05751 c -0.14077,0.0457 -0.0238,0.01357 -0.002,0.01138 3e-5,-0.004 0.002,-0.007 0.002,-0.01138 z m -51.797868,3.53105 -16.867187,0.0083 c -1.735672,0.22755 -3.474225,0.269489 -5.215186,0.126609 l -8.273396,0.124539 c -0.763765,0.23813 -1.57642,0.284684 -2.437062,0.140044 -1.76477,0.3175 -3.894597,0.116626 -5.691124,0.145727 -0.5715,0.158769 -1.126815,0.185391 -1.666565,0.07958 l -6.276104,0.203604 c -0.268113,0.21693 -0.578433,0.228809 -0.931209,0.03669 -1.656292,0.296201 -3.352208,0.187828 -5.029666,0.198438 -0.693208,0.174479 -1.388406,0.20837 -2.085144,0.100769 l -2.349212,0.158647 c -0.440973,0.178149 -0.879483,0.211889 -1.315164,0.100769 L 18.9867,79.303364 c -0.238128,0.197561 -0.531834,0.23786 -0.881084,0.121441 l -2.841686,0.134874 c -0.264583,0.216961 -0.555315,0.249867 -0.872815,0.09819 -0.656167,0.176389 -1.361723,0.233823 -2.116667,0.172082 -0.36689,0.183449 -0.719666,0.217485 -1.058333,0.102836 L 6.9031999,80.46402 c 0.02379,0.0622 0.04019,0.10147 0.06563,0.167949 0.03449,0.0901 0.06112,0.20774 0.08165,0.31781 0.207693,0.226351 0.383963,0.472495 0.499195,0.759126 0.01881,0.0468 0.03425,0.0964 0.04909,0.146246 1.834785,-0.195082 3.8283961,-0.173053 5.4110391,-0.279053 2.828395,-0.185211 5.640855,-0.142703 8.469249,-0.293524 1.772711,-0.0917 3.53414,-0.140395 5.283917,-0.145727 0.530931,-0.17816 1.086244,-0.210529 1.666565,-0.09767 l 3.164663,-0.15348 c 0.264583,-0.15699 0.575725,-0.19318 0.933794,-0.108518 l 9.898104,-0.441836 c 0.899586,-0.208328 1.701229,-0.205793 2.40502,0.0052 l 3.937229,-0.267769 c 0.756708,-0.165812 1.522156,-0.204473 2.296501,-0.116274 v 5.29e-4 c 2.20486,-0.13404 4.420894,-0.171889 6.648688,-0.113688 0.679979,0.01849 1.222515,-0.264168 1.868104,-0.267169 2.711101,-0.0159 5.42144,-0.01365 8.13077,0.0078 1.098021,0.01061 2.267437,0.211608 3.264916,0.222207 2.462382,0.0282 4.924748,0.03774 7.387146,0.02894 0.809622,-0.004 1.99564,0.0547 3.558439,0.174668 1.680112,0.129648 3.392292,0.0558 5.035351,0.1881 2.114011,0.169331 4.315273,-0.01079 6.397543,0.317294 0.472721,-0.186831 0.900367,-0.134163 1.283126,0.158646 1.934991,-0.0988 3.837424,-0.05629 5.707141,0.127125 0.34925,0.0335 0.95165,0.06097 1.80713,0.08217 0.81492,0.02119 1.64813,0.198604 2.41277,0.203605 2.16945,0.02119 4.84747,0.238244 6.46937,0.328144 4.28894,0.23907 8.57223,0.554686 12.85245,0.911056 -0.17152,-0.529101 -0.28672,-1.044824 -0.35037,-1.543574 -0.50087,-0.0639 -1.00173,-0.121058 -1.4981,-0.145727 -2.24102,-0.111131 -4.46613,-0.56347 -6.7045,-0.666626 -0.34396,0.09167 -0.69345,0.04758 -1.04799,-0.132292 l -1.97611,-0.179834 c -0.34572,0.112868 -0.70311,0.08622 -1.07177,-0.07958 l -2.03192,-0.18764 c -0.39335,0.1358 -0.76571,0.109178 -1.11673,-0.07958 l -2.28875,-0.116271 c -0.65441,0.0794 -1.29084,0.0345 -1.90996,-0.134877 l -2.56935,-0.182933 c -0.35807,0.0988 -0.73371,0.0664 -1.12706,-0.09767 l -1.798858,-0.116274 c -0.562679,0.102312 -1.075264,0.0561 -1.537372,-0.137975 l -2.894399,-0.150378 c -0.978958,0.132299 -1.978228,0.09299 -2.99775,-0.11679 l -3.944977,-0.121438 c -0.710851,0.0935 -1.412309,0.0464 -2.103747,-0.14056 l -4.484481,-0.185002 c -0.20814,0.14465 -0.437343,0.115485 -0.687814,-0.08733 z m -72.9748731,2.756937 -0.187585,0.02326 c 0.157808,0.137261 0.310301,0.27771 0.449067,0.426847 -0.09006,-0.147098 -0.173434,-0.299913 -0.261482,-0.449582 z m 0.28267,0.48731 c 0.04592,0.2531 0.05635,0.449802 0.03411,0.119372 -0.01183,-0.0395 -0.01505,-0.0831 -0.03411,-0.119372 z" />
    <ellipse
       fill="#b3aea6"
       cx="5.6929712"
       cy="-67.517586"
       transform="rotate(98.500001)"
       rx="1.2964584"
       ry="0.10847916"
       id="ellipse3004"
       style="fill:#000000;stroke-width:0.264583" />
    <path
       fill="#e0e1e4"
       d="m 53.308584,21.558016 -0.71438,0.17198 0.22754,-2.65377 q 0.005,-0.0635 0.0688,-0.0662 l 0.0714,-0.005 q 0.0529,-0.003 0.0582,0.0503 z"
       id="path3018"
       style="fill:#000000;stroke-width:0.264583" />
    <path
       fill="#e0e1e4"
       d="m 67.090719,31.807976 -0.49212,-1.03188 0.0265,-8.53546 q 0,-0.20373 0.082,-0.0159 0.14552,0.33866 0.16139,0.72231 c 0.127,2.98979 0.39688,5.31283 0.22225,8.8609 z"
       id="path3026"
       style="fill:#000000;stroke-width:0.264583" />
    <path
       id="rect3034"
       style="fill:#000000;stroke-width:0.264583"
       d="m 76.089159,23.290218 c -0.02291,1.59e-4 -0.04523,0.01143 -0.05891,0.03204 l -1.750801,2.636015 c -0.02191,0.03296 -0.01334,0.0768 0.01963,0.0987 l 0.0088,0.0062 c 0.03296,0.02191 0.07732,0.01281 0.09922,-0.02016 l 1.7513,-2.635498 c 0.02191,-0.03296 0.01281,-0.07732 -0.02016,-0.09922 l -0.0088,-0.0057 c -0.01236,-0.0082 -0.02656,-0.01249 -0.04031,-0.01241 z" />
    <path
       fill="#e0e1e4"
       d="m 84.061099,44.251326 q -0.26988,-0.45773 -0.71967,-1.59279 -0.2884,-0.72231 -1.16681,-1.46579 l 0.71437,-0.96309 a 0.08466667,0.08466667 0 0 1 0.15081,0.0291 z"
       id="path3092"
       style="fill:#000000;stroke-width:0.264583" />
    <path
       fill="#b3aea6"
       d="m 89.987759,47.389286 q -0.0344,0.70908 -0.61648,1.56898 -0.0688,0.10318 -0.1905,0.11641 l -0.29368,0.0344 0.0476,-0.1614 q 0.082,0.0688 0.13494,0.0767 0.0529,0.0106 0.0714,-0.0873 c 0.13229,-0.68262 0.37835,-1.24354 0.35454,-1.94733 q -0.0529,-1.71715 -0.008,-3.43165 c 0.0159,-0.58208 0.32015,-1.08744 0.34131,-1.72244 q 0,-0.005 0.008,-0.005 0.0503,-0.003 0.0132,0 -0.005,0 -0.005,0.005 z"
       id="path3102"
       style="fill:#000000;stroke-width:0.264583" />
    <path
       fill="#787573"
       d="m 58.290684,44.796366 -0.26194,1.16152 q -0.0265,-0.005 -0.0529,-0.0106 -0.0132,-0.55563 0.31485,-1.15094 z"
       id="path3114"
       style="fill:#000000;stroke-width:0.264583" />
    <path
       fill="#b3aea6"
       d="m 57.975834,45.947306 q 0.0264,0.005 0.0529,0.0106 0.082,0.0132 0.12965,0.0397 0.127,0.0741 0.008,0.1614 -0.20638,0.14816 -0.16934,0.39158 0.0185,0.14023 -0.0873,0.23019 l -0.29633,0.24606 q 0.0847,-0.58473 0.36248,-1.0795 z"
       id="path3118"
       style="fill:#000000;stroke-width:0.264583" />
    <path
       fill="#b3aea6"
       d="m 58.542034,48.368246 a 0.03439583,0.03439583 0 0 1 -0.0476,0.0159 l -0.003,-0.003 a 0.27252083,1.0424583 26.1 0 1 0.21432,-1.05569 l 0.037,-0.0794 a 0.27252083,1.0424583 26.1 0 1 0.70379,-0.81756 l 0.005,0.003 a 0.03439583,0.03439583 0 0 1 0.0159,0.0476 z"
       id="path3122"
       style="fill:#000000;stroke-width:0.264583" />
    <path
       fill="#b3aea6"
       d="m 76.650119,48.643406 q -0.0132,-0.0318 -0.12965,0.17463 -0.40481,-0.98161 -0.23548,-2.08227 0.008,-0.0397 0.0132,0 z"
       id="path3126"
       style="fill:#000000;stroke-width:0.264583" />
    <path
       fill="#787573"
       d="m 75.496529,47.794096 q 0.34925,2.60615 0.10584,5.29431 l -4.54025,-0.0344 q -0.0661,0 -0.0661,-0.0688 v -0.0688 q 0.003,-0.0238 0.0238,-0.0238 l 4.06665,-0.11112 q 0.45244,-0.0132 0.44715,-0.46302 z"
       id="path3132"
       style="fill:#000000;stroke-width:0.264583" />
    <path
       fill="#e0e1e4"
       d="m 87.987509,48.148636 q 0.18257,0.53711 0.6059,0.45773 0.10319,-0.0185 0.14287,0.0767 0.0661,0.1614 0.19844,0.26458 l -0.0476,0.1614 q -0.24607,0.045 -0.47625,0.0106 -0.13494,-0.0185 -0.20109,-0.13758 -0.21166,-0.37306 -0.22225,-0.83344 z"
       id="path3134"
       style="fill:#000000;stroke-width:0.264583" />
    <path
       fill="#e0e1e4"
       d="m 56.184604,52.569826 q -0.87577,0.508 -1.4949,0.14287 0.889,-1.60337 1.27265,-2.9792 0.1905,-0.67998 0.17727,0.0264 -0.0185,1.13507 -0.0582,2.55588 -0.003,0.09 0.10319,0.254 z"
       id="path3140"
       style="fill:#000000;stroke-width:0.264583" />
    <path
       fill="#b3aea6"
       d="m 56.917494,51.191346 q 0.0582,0.6985 -0.10318,1.35467 -0.0476,-0.12436 -0.15346,-0.005 z"
       id="path3144"
       style="fill:#000000;stroke-width:0.264583" />
    <path
       fill="#b3aea6"
       d="m 45.778534,51.487676 q 0.005,0.43921 0.20373,0.61384 a 0.238125,0.23547916 17.2 0 1 0.082,0.15346 q 0.0371,0.32543 0.45244,0.48683 l -1.28058,0.0503 q -0.15611,0.005 -0.10848,-0.14288 0.20637,-0.64029 0.65087,-1.16152 z"
       id="path3146"
       style="fill:#000000;stroke-width:0.264583" />
    <path
       fill="#787573"
       d="m 56.184604,52.569826 q 0.20902,0.10054 0.47625,-0.0291 0.10583,-0.11907 0.15346,0.005 l 0.51593,0.0529 q 0.64029,0.0635 0.19579,0.52652 l -0.1905,0.1958 q -0.14022,0.14816 -0.13229,-0.0582 0.003,-0.0556 -0.003,-0.11377 -0.008,-0.10584 -0.10848,-0.14552 -0.18521,-0.0714 -0.35984,0.0397 a 0.43656249,0.44714583 30.2 0 1 -0.22754,0.0635 l -1.67216,-0.0132 q -0.16669,-0.26987 -0.14288,-0.381 0.61913,0.36513 1.4949,-0.14287 z"
       id="path3160"
       style="fill:#000000;stroke-width:0.264583" />
    <ellipse
       fill="#272f42"
       cx="51.279942"
       cy="65.493401"
       transform="rotate(-11.9)"
       rx="1.1721041"
       ry="0.68527079"
       id="ellipse3170"
       style="fill:#000000;stroke-width:0.264583" />
    <path
       fill="#b3aea6"
       d="m 54.120854,53.562016 q -0.94457,1.67216 -1.73038,3.43693 c -0.78846,1.77271 -1.59014,3.12473 -2.55852,4.62757 a 0.40481249,0.41274999 64 0 0 -0.0609,0.17198 q -0.0132,0.14287 -0.0953,0.2196 -0.24607,0.22225 -0.082,-0.0979 0.55562,-1.09008 1.16152,-2.14312 c 1.15358,-2.00554 2.00554,-4.13808 2.97656,-6.21242 q 0.26458,-0.13229 0.38894,-0.003 z"
       id="path3182"
       style="fill:#000000;stroke-width:0.264583" />
    <path
       fill="#b3aea6"
       d="m 54.017664,59.726806 q 0.0635,-0.33867 0.25665,-0.67469 1.35466,-2.36802 2.14577,-4.97681 0.0423,-0.13758 0.18256,-0.17992 0.19579,-0.0582 0.20637,-0.27252 a 0.1190625,0.12170833 19.4 0 1 0.1905,-0.0926 l 0.0635,0.0476 a 0.14552083,0.142875 40.3 0 1 0.0185,0.21431 q -0.19314,0.19844 -0.15875,0.48155 0.0132,0.127 -0.0476,0.23812 -1.26735,2.34156 -2.46592,4.71223 -0.17198,0.34396 -0.39158,0.50271 z"
       id="path3184"
       style="fill:#000000;stroke-width:0.264583" />
    <path
       fill="#787573"
       d="m 31.790018,53.744576 q 0.526521,0.13494 0.582083,-0.0397 l -1.801812,3.65125 q -0.01852,0.0423 -0.06085,0.0212 l -0.0026,-0.003 q -0.03704,-0.0185 -0.02117,-0.0582 z"
       id="path3192"
       style="fill:#000000;stroke-width:0.264583" />
    <path
       fill="#787573"
       d="m 100.94151,53.905976 -0.18785,0.26722 q -0.0662,0.0952 0.0132,0.17992 1.25677,1.30969 1.95527,2.97921 0.0979,0.23283 -0.0741,0.045 c -0.50536,-0.56092 -0.76465,-1.38906 -1.1139,-1.87061 q -0.65352,-0.90752 -1.677461,-1.51077 0.529171,-0.13229 1.084791,-0.09 z"
       id="path3194"
       style="fill:#000000;stroke-width:0.264583" />
    <path
       fill="#b3aea6"
       d="m 54.017664,59.726806 q 0.005,0.33337 -0.14552,0.47096 -0.09,0.082 -0.0873,-0.0397 0.008,-0.2884 0.23283,-0.43127 z"
       id="path3212"
       style="fill:#000000;stroke-width:0.264583" />
    <path
       fill="#b3aea6"
       d="m 52.035934,64.169156 q -0.005,0.0423 -0.0132,0.0794 -0.0238,0.0979 -0.0397,0 c -0.0476,-0.32015 0.20902,-0.73819 0.381,-1.00013 q 0.037,-0.0556 0.0926,-0.0185 l 0.0582,0.0397 a 0.01322917,0.01322917 0 0 1 0.003,0.0185 q -0.26458,0.34396 -0.44979,0.7276 -0.0265,0.0556 -0.0317,0.15346 z"
       id="path3222"
       style="fill:#000000;stroke-width:0.264583" />
    <path
       fill="#272f42"
       d="m 60.370314,68.471286 q -0.24342,-0.0688 -0.31486,0.1905 -0.0635,0.22754 -0.0714,0.24871 -1.09537,2.79664 -2.13783,5.6171 c -0.40481,1.09008 -2.39712,0.91281 -2.99508,0.23813 q -0.18786,-0.20903 -0.42863,-0.87842 c -0.63235,-1.7489 -1.49489,-3.47663 -2.26219,-5.15673 a 0.15875,0.15610416 57.5 0 0 -0.24341,-0.0556 q -0.11642,0.0952 -0.11113,0.24341 0.0767,2.86015 0.17463,5.50598 0.0317,0.91017 -0.87842,0.91017 h -0.60325 q -0.87577,0 -0.91281,-0.87577 l -0.32279,-7.67027 a 0.67997916,0.67997916 0 0 1 0.68527,-0.70909 q 0.66675,0.005 1.4261,-0.0688 c 1.82034,-0.17991 2.45798,0.78317 3.15648,2.37861 q 0.7329,1.67481 1.39436,3.37608 0.0741,0.18785 0.15875,0.31485 a 0.18785416,0.18785416 0 0 0 0.33072,-0.0397 q 0.8308,-2.23044 1.59544,-4.43707 c 0.6694,-1.92616 2.2569,-1.87589 4.008435,-1.84414 0.75406,0.0132 0.90487,0.28046 0.91017,1.01335 q 0.0212,3.75973 0.082,7.59619 a 0.61912499,0.61912499 0 0 1 -0.61119,0.62971 l -1.00277,0.0106 q -0.775225,0.0106 -0.785805,-0.76464 l -0.0952,-5.58536 a 0.1984375,0.19314583 7.8 0 0 -0.14552,-0.18785 z"
       id="path3224"
       style="fill:#000000;stroke-width:0.264583" />
    <rect
       fill="#272f42"
       x="63.539272"
       y="66.197563"
       transform="rotate(-0.40000107)"
       width="2.5294168"
       height="9.255125"
       rx="0.70114583"
       id="rect3226"
       style="fill:#000000;stroke-width:0.264583" />
    <path
       fill="#272f42"
       d="m 73.723829,68.190826 h -5.28638 q -0.73289,0 -0.73289,-0.73025 v -1.00542 q 0,-0.71173 0.71172,-0.71173 3.36815,0 6.75217,0 c 1.15094,0 2.92629,0.38894 2.43946,1.98438 q -0.16933,0.55827 -0.96573,1.13506 -2.4421,1.76742 -4.83923,3.47663 -0.37571,0.26723 0.0847,0.27516 l 5.0165,0.0952 q 0.75671,0.0132 0.74083,0.76994 l -0.0212,0.889 q -0.0185,0.74348 -0.762,0.72231 -3.58775,-0.0979 -7.49564,-0.0926 c -1.7489,0.003 -2.35479,-1.89177 -0.91811,-2.93423 1.75948,-1.27529 3.56923,-2.45269 5.32607,-3.7121 q 0.22489,-0.1614 -0.0503,-0.1614 z"
       id="path3228"
       style="fill:#000000;stroke-width:0.264583" />
    <rect
       fill="#272f42"
       x="42.441929"
       y="68.333099"
       transform="rotate(-2.6999996)"
       width="2.5294168"
       height="9.3027496"
       rx="0.71966666"
       id="rect3230"
       style="fill:#000000;stroke-width:0.264583" />
    <path
       fill="#272f42"
       d="m 99.623889,73.154406 q 0.15875,-0.082 0.17727,-0.2831 0.243421,-2.62731 0.425981,-5.15408 0.0556,-0.79375 0.84931,-0.71967 l 0.92869,0.0873 q 0.762,0.0714 0.70114,0.83608 -0.31485,3.9079 -0.61118,7.64117 c -0.045,0.56886 -0.27517,1.10331 -0.93663,0.8599 q -0.12171,-0.045 -0.25135,-0.0291 -1.645711,0.22754 -2.521481,-0.96837 -2.16429,-2.9554 -4.3815,-5.86052 -0.17992,-0.23284 -0.36513,-0.32015 a 0.24077083,0.24077083 0 0 0 -0.34396,0.20373 l -0.36247,6.21506 a 0.07408333,0.07408333 0 0 1 -0.0794,0.0688 l -2.30717,-0.13493 q -0.0635,-0.005 -0.0609,-0.0688 0.21696,-4.02696 0.42862,-8.13065 c 0.0741,-1.42875 0.90753,-0.9869 1.84944,-0.99219 q 1.52665,-0.0106 2.49238,1.22238 2.10873,2.70668 4.25979,5.50068 a 0.08995833,0.0873125 57.7 0 0 0.10848,0.0265 z"
       id="path3232"
       style="fill:#000000;stroke-width:0.264583" />
    <path
       fill="#787573"
       d="m 101.7723,66.439286 q 0.0714,0.0556 -0.008,0.0953 -0.12171,0.0635 -0.26194,0.0661 a 0.11377083,0.111125 35.6 0 1 -0.037,-0.2196 q 0.15875,-0.0529 0.30691,0.0582 z"
       id="path3234"
       style="fill:#000000;stroke-width:0.264583" />
    <path
       fill="#272f42"
       d="m 38.806768,72.746946 q -1.653646,1.73303 -2.6035,2.89455 c -0.632354,0.77523 -1.457854,0.6297 -2.375958,0.69056 a 0.45508333,0.44979166 71.4 0 1 -0.410105,-0.20638 q -0.256645,-0.39158 0.03175,-0.73289 1.804459,-2.13784 3.632729,-4.19629 a 0.10847917,0.10583333 42.5 0 0 -0.0079,-0.15346 q -1.561042,-1.39171 -3.180292,-2.65906 -1.629833,-1.2753 0.433917,-1.42875 l 1.225021,-0.0926 a 0.84931249,0.85195832 64.2 0 1 0.635,0.21961 l 2.500312,2.286 q 0.119063,0.10847 0.230188,-0.0106 l 2.513541,-2.70139 a 0.52122916,0.51593749 19.5 0 1 0.346603,-0.16405 l 1.5875,-0.0952 a 0.58472916,0.59002083 68.1 0 1 0.47625,0.20109 q 0.3175,0.36512 -0.0132,0.73289 -1.51871,1.69598 -3.143258,3.43694 -0.08202,0.09 0.0079,0.16933 l 3.727978,3.33905 q 1.32292,1.18533 -0.44714,1.32556 l -1.51607,0.11906 q -0.13229,0.0106 -0.23283,-0.0794 l -3.204105,-2.90248 q -0.111125,-0.10054 -0.214312,0.008 z"
       id="path3236"
       style="fill:#000000;stroke-width:0.264583" />
    <path
       id="path3240"
       style="fill:#000000;stroke-width:0.264583"
       d="m 104.63797,67.264996 a 0.80962499,0.80962499 0 0 0 -0.87333,0.74311 l -0.61702,7.66775 a 0.80962499,0.80962499 0 0 0 0.74104,0.87333 l 4.96352,0.39946 a 4.9106666,4.6328541 4.6 0 0 5.26789,-4.22558 l 0.003,-0.0475 a 4.9106666,4.6328541 4.6 0 0 -4.52169,-5.01107 z m 1.86758,2.54765 2.82567,0.26458 a 2.492375,2.1510625 5.3 0 1 2.28358,2.37092 l -0.0134,0.13746 a 2.492375,2.1510625 5.3 0 1 -2.67994,1.91048 l -2.82567,-0.262 a 0.33602083,0.33602083 0 0 1 -0.30437,-0.36536 l 0.34675,-3.7517 a 0.33602083,0.33602083 0 0 1 0.36742,-0.30438 z" />
    <path
       fill="#272f42"
       d="m 28.93781,75.286946 -4.228042,0.3519 q -0.156104,0.0132 -0.201083,0.16404 l -0.288396,0.93927 a 0.73024999,0.73024999 0 0 1 -0.627063,0.51329 l -1.449916,0.14023 a 0.63235416,0.63235416 0 0 1 -0.672042,-0.79639 q 0.809625,-2.94746 1.606021,-5.83142 0.508,-1.83885 1.008062,-2.40506 c 1.17475,-1.33086 3.802063,-1.27265 4.717521,0.49477 q 1.637771,3.175 3.225271,6.37646 c 0.738187,1.49225 -1.195917,1.44727 -2.005542,1.32291 a 0.56885416,0.56885416 0 0 1 -0.41275,-0.28839 l -0.484187,-0.88106 q -0.06085,-0.11113 -0.187854,-0.10055 z m -2.328334,-5.38691 a 0.079375,0.079375 0 0 0 -0.07144,-0.0476 l -0.550334,0.008 a 0.079375,0.079375 0 0 0 -0.07673,0.0608 l -0.870479,3.556 a 0.079375,0.079375 0 0 0 0.08467,0.0979 l 2.928937,-0.29369 a 0.079375,0.079375 0 0 0 0.0635,-0.11112 z"
       id="path3242"
       style="fill:#000000;stroke-width:0.264583" />
    <path
       id="path3246"
       style="fill:#000000;stroke-width:0.264583"
       d="m 18.813586,68.42648 a 0.76729166,0.7646458 81.1 0 0 -0.157615,0.0155 c -0.77523,0.158749 -1.78325,0.119009 -2.405021,0.399459 -0.742595,0.33514 -1.221409,0.914654 -1.436605,1.738395 -0.386278,1.481661 -0.739069,2.916457 -1.058333,4.304646 -0.1411,0.61381 -0.360776,0.642983 -0.658874,0.08733 C 12.448025,73.754729 11.714987,72.434271 10.898305,71.010812 9.8743709,69.222221 8.1704939,69.717476 6.5750559,69.976765 A 0.70643749,0.70643749 0 0 0 5.9900779,70.7731 l 1.092957,7.709606 c 0.07056,0.50803 0.361804,0.732312 0.873331,0.672312 l 0.822688,-0.100769 c 0.525637,-0.0635 0.7532,-0.356391 0.682646,-0.878501 l -0.759643,-5.611543 a 0.17991665,0.17727082 78.3 0 1 0.12454,-0.19327 c 0.125235,-0.0388 0.229224,0.01151 0.312126,0.150894 1.0248211,1.740961 2.0311611,3.492341 3.0189381,5.254461 0.526521,0.93663 1.929019,1.010772 2.659269,0.39429 0.282223,-0.23812 0.514705,-0.696526 0.698148,-1.375624 0.453321,-1.682753 0.928034,-3.445825 1.423686,-5.289084 a 0.28310416,0.28045833 2.9 0 1 0.227375,-0.203605 c 0.05997,-0.009 0.118221,0.0274 0.174667,0.108521 0.03351,0.0476 0.05474,0.109152 0.06356,0.185 0.206375,1.843262 0.418148,3.668688 0.635103,5.476668 0.05821,0.485071 0.33069,0.708528 0.817523,0.669727 l 0.862478,-0.06615 c 0.523875,-0.0423 0.756875,-0.324877 0.698667,-0.846976 l -0.849561,-7.72046 A 0.76729166,0.7646458 81.1 0 0 18.813585,68.42647 Z" />
    <path
       id="path3248"
       style="fill:#000000;stroke-width:0.264583"
       d="m 119.97088,68.787906 a 5.2943124,4.7333958 5.9 0 0 -4.96249,4.19251 5.2943124,4.7333958 5.9 0 0 4.77955,5.25291 5.2943124,4.7333958 5.9 0 0 5.75314,-4.16409 5.2943124,4.7333958 5.9 0 0 -4.78007,-5.25291 5.2943124,4.7333958 5.9 0 0 -0.79013,-0.0284 z m 0.0713,2.47168 a 2.7675416,2.2542499 8.2 0 1 0.54054,0.0341 2.7675416,2.2542499 8.2 0 1 2.41794,2.62568 2.7675416,2.2542499 8.2 0 1 -3.0608,1.83658 2.7675416,2.2542499 8.2 0 1 -2.41794,-2.62568 2.7675416,2.2542499 8.2 0 1 2.52026,-1.87069 z" />
    <path
       id="path3250"
       style="fill:#000000;stroke-width:0.264583"
       d="m 131.77826,74.119673 c -0.0251,0.008 -0.0548,0.01688 -0.078,0.02429 -0.0312,0.01479 -0.0627,0.02931 -0.0946,0.04341 0.0242,-0.005 0.0917,-0.0236 0.15451,-0.04031 0.006,-0.009 0.012,-0.01828 0.0181,-0.02739 z" />
  </g>
</svg>
